<svg width="24" height="25" viewBox="0 0 24 25" fill="none" xmlns="http://www.w3.org/2000/svg">
<path d="M8 8.66669V7.66669M8 13.1667V12.1667M8 17.6667V16.6667M6.8 20.6667H17.2C18.8802 20.6667 19.7202 20.6667 20.362 20.3397C20.9265 20.0521 21.3854 19.5931 21.673 19.0287C22 18.3869 22 17.5468 22 15.8667V9.46669C22 7.78653 22 6.94645 21.673 6.30472C21.3854 5.74023 20.9265 5.28129 20.362 4.99367C19.7202 4.66669 18.8802 4.66669 17.2 4.66669H6.8C5.11984 4.66669 4.27976 4.66669 3.63803 4.99367C3.07354 5.28129 2.6146 5.74023 2.32698 6.30472C2 6.94645 2 7.78653 2 9.46669V15.8667C2 17.5468 2 18.3869 2.32698 19.0287C2.6146 19.5931 3.07354 20.0521 3.63803 20.3397C4.27976 20.6667 5.11984 20.6667 6.8 20.6667Z" stroke="#EAAA08" stroke-width="2" stroke-linecap="round" stroke-linejoin="round"/>
</svg>
