<svg width="24" height="25" viewBox="0 0 24 25" fill="none" xmlns="http://www.w3.org/2000/svg">
<path d="M11 11.6667H6.2C5.07989 11.6667 4.51984 11.6667 4.09202 11.8847C3.71569 12.0764 3.40973 12.3824 3.21799 12.7587C3 13.1865 3 13.7466 3 14.8667V21.6667M21 21.6667V6.86669C21 5.74658 21 5.18653 20.782 4.75871C20.5903 4.38238 20.2843 4.07642 19.908 3.88467C19.4802 3.66669 18.9201 3.66669 17.8 3.66669H14.2C13.0799 3.66669 12.5198 3.66669 12.092 3.88467C11.7157 4.07642 11.4097 4.38238 11.218 4.75871C11 5.18653 11 5.74658 11 6.86669V21.6667M22 21.6667H2M14.5 7.66669H17.5M14.5 11.6667H17.5M14.5 15.6667H17.5" stroke="#EAAA08" stroke-width="2" stroke-linecap="round" stroke-linejoin="round"/>
</svg>
