<svg width="24" height="25" viewBox="0 0 24 25" fill="none" xmlns="http://www.w3.org/2000/svg">
<path d="M3 11.2318C3 10.6574 3 10.3702 3.07403 10.1058C3.1396 9.8715 3.24737 9.65116 3.39203 9.45557C3.55534 9.23477 3.78202 9.05846 4.23539 8.70584L11.0177 3.43072C11.369 3.15746 11.5447 3.02084 11.7387 2.96832C11.9098 2.92198 12.0902 2.92198 12.2613 2.96832C12.4553 3.02084 12.631 3.15746 12.9823 3.43072L19.7646 8.70584C20.218 9.05846 20.4447 9.23477 20.608 9.45557C20.7526 9.65116 20.8604 9.8715 20.926 10.1058C21 10.3702 21 10.6574 21 11.2318V18.4667C21 19.5868 21 20.1469 20.782 20.5747C20.5903 20.951 20.2843 21.257 19.908 21.4487C19.4802 21.6667 18.9201 21.6667 17.8 21.6667H6.2C5.07989 21.6667 4.51984 21.6667 4.09202 21.4487C3.71569 21.257 3.40973 20.951 3.21799 20.5747C3 20.1469 3 19.5868 3 18.4667V11.2318Z" stroke="#EAAA08" stroke-width="2" stroke-linecap="round" stroke-linejoin="round"/>
</svg>
