<svg width="24" height="25" viewBox="0 0 24 25" fill="none" xmlns="http://www.w3.org/2000/svg">
<path d="M20.5 7.94444L12 12.6667M12 12.6667L3.49997 7.94444M12 12.6667L12 22.1667M21 16.7252V8.60813C21 8.26549 21 8.09417 20.9495 7.94137C20.9049 7.80619 20.8318 7.68211 20.7354 7.57742C20.6263 7.45908 20.4766 7.37588 20.177 7.20948L12.777 3.09837C12.4934 2.94081 12.3516 2.86203 12.2015 2.83115C12.0685 2.80381 11.9315 2.80381 11.7986 2.83115C11.6484 2.86203 11.5066 2.94081 11.223 3.09837L3.82297 7.20948C3.52345 7.37589 3.37369 7.45909 3.26463 7.57742C3.16816 7.68211 3.09515 7.8062 3.05048 7.94137C3 8.09417 3 8.26549 3 8.60813V16.7252C3 17.0679 3 17.2392 3.05048 17.392C3.09515 17.5272 3.16816 17.6513 3.26463 17.756C3.37369 17.8743 3.52345 17.9575 3.82297 18.1239L11.223 22.235C11.5066 22.3926 11.6484 22.4713 11.7986 22.5022C11.9315 22.5296 12.0685 22.5296 12.2015 22.5022C12.3516 22.4713 12.4934 22.3926 12.777 22.235L20.177 18.1239C20.4766 17.9575 20.6263 17.8743 20.7354 17.756C20.8318 17.6513 20.9049 17.5272 20.9495 17.392C21 17.2392 21 17.0679 21 16.7252Z" stroke="#EAAA08" stroke-width="2" stroke-linecap="round" stroke-linejoin="round"/>
<path d="M16.5 10.1667L7.5 5.16669" stroke="#EAAA08" stroke-width="2" stroke-linecap="round" stroke-linejoin="round"/>
</svg>
