<svg width="24" height="25" viewBox="0 0 24 25" fill="none" xmlns="http://www.w3.org/2000/svg">
<path d="M17.5 7.16669L6.5 18.1667M8.5 11.1667V7.16669M6.5 9.16669H10.5M13.5 16.1667H17.5M7.8 21.6667H16.2C17.8802 21.6667 18.7202 21.6667 19.362 21.3397C19.9265 21.0521 20.3854 20.5931 20.673 20.0287C21 19.3869 21 18.5468 21 16.8667V8.46669C21 6.78653 21 5.94645 20.673 5.30472C20.3854 4.74023 19.9265 4.28129 19.362 3.99367C18.7202 3.66669 17.8802 3.66669 16.2 3.66669H7.8C6.11984 3.66669 5.27976 3.66669 4.63803 3.99367C4.07354 4.28129 3.6146 4.74023 3.32698 5.30472C3 5.94645 3 6.78653 3 8.46669V16.8667C3 18.5468 3 19.3869 3.32698 20.0287C3.6146 20.5931 4.07354 21.0521 4.63803 21.3397C5.27976 21.6667 6.11984 21.6667 7.8 21.6667Z" stroke="#EAAA08" stroke-width="2" stroke-linecap="round" stroke-linejoin="round"/>
</svg>
