<svg width="24" height="25" viewBox="0 0 24 25" fill="none" xmlns="http://www.w3.org/2000/svg">
<path d="M20 10.1667V7.86669C20 6.74658 20 6.18653 19.782 5.75871C19.5903 5.38238 19.2843 5.07642 18.908 4.88468C18.4802 4.66669 17.9201 4.66669 16.8 4.66669H5.2C4.0799 4.66669 3.51984 4.66669 3.09202 4.88467C2.7157 5.07642 2.40973 5.38238 2.21799 5.75871C2 6.18653 2 6.74658 2 7.86669V17.4667C2 18.5868 2 19.1468 2.21799 19.5747C2.40973 19.951 2.71569 20.257 3.09202 20.4487C3.51984 20.6667 4.07989 20.6667 5.2 20.6667L16.8 20.6667C17.9201 20.6667 18.4802 20.6667 18.908 20.4487C19.2843 20.257 19.5903 19.951 19.782 19.5747C20 19.1468 20 18.5868 20 17.4667V15.1667M15 12.6667C15 12.202 15 11.9697 15.0384 11.7765C15.1962 10.9831 15.8164 10.3629 16.6098 10.2051C16.803 10.1667 17.0353 10.1667 17.5 10.1667H19.5C19.9647 10.1667 20.197 10.1667 20.3902 10.2051C21.1836 10.3629 21.8038 10.9831 21.9616 11.7765C22 11.9697 22 12.202 22 12.6667C22 13.1313 22 13.3637 21.9616 13.5569C21.8038 14.3502 21.1836 14.9704 20.3902 15.1283C20.197 15.1667 19.9647 15.1667 19.5 15.1667H17.5C17.0353 15.1667 16.803 15.1667 16.6098 15.1283C15.8164 14.9704 15.1962 14.3502 15.0384 13.5569C15 13.3637 15 13.1313 15 12.6667Z" stroke="#EAAA08" stroke-width="2" stroke-linecap="round" stroke-linejoin="round"/>
</svg>
