<svg width="24" height="25" viewBox="0 0 24 25" fill="none" xmlns="http://www.w3.org/2000/svg">
<path d="M12 15.6667C8.8299 15.6667 6.01077 17.1973 4.21597 19.5727C3.82968 20.0839 3.63653 20.3395 3.64285 20.685C3.64773 20.9519 3.81533 21.2886 4.02534 21.4534C4.29716 21.6667 4.67384 21.6667 5.4272 21.6667H18.5727C19.3261 21.6667 19.7028 21.6667 19.9746 21.4534C20.1846 21.2886 20.3522 20.9519 20.3571 20.685C20.3634 20.3395 20.1703 20.0839 19.784 19.5727C17.9892 17.1973 15.17 15.6667 12 15.6667Z" stroke="#EAAA08" stroke-width="2" stroke-linecap="round" stroke-linejoin="round"/>
<path d="M12 12.6667C14.4853 12.6667 16.5 10.652 16.5 8.16669C16.5 5.68141 14.4853 3.66669 12 3.66669C9.51469 3.66669 7.49997 5.68141 7.49997 8.16669C7.49997 10.652 9.51469 12.6667 12 12.6667Z" stroke="#EAAA08" stroke-width="2" stroke-linecap="round" stroke-linejoin="round"/>
</svg>
