<svg width="24" height="25" viewBox="0 0 24 25" fill="none" xmlns="http://www.w3.org/2000/svg">
<path d="M14 7.66669H16.3373C16.5818 7.66669 16.7041 7.66669 16.8192 7.69432C16.9213 7.71881 17.0188 7.75922 17.1083 7.81405C17.2092 7.87589 17.2957 7.96236 17.4686 8.13532L21.5314 12.1981C21.7043 12.371 21.7908 12.4575 21.8526 12.5584C21.9075 12.6479 21.9479 12.7454 21.9724 12.8475C22 12.9625 22 13.0848 22 13.3294V16.1667C22 16.6326 22 16.8656 21.9239 17.0494C21.8224 17.2944 21.6277 17.4891 21.3827 17.5906C21.1989 17.6667 20.9659 17.6667 20.5 17.6667M15.5 17.6667H14M14 17.6667V7.86669C14 6.74658 14 6.18653 13.782 5.75871C13.5903 5.38238 13.2843 5.07642 12.908 4.88467C12.4802 4.66669 11.9201 4.66669 10.8 4.66669H5.2C4.0799 4.66669 3.51984 4.66669 3.09202 4.88467C2.71569 5.07642 2.40973 5.38238 2.21799 5.75871C2 6.18653 2 6.74658 2 7.86669V15.6667C2 16.7713 2.89543 17.6667 4 17.6667M14 17.6667H10M10 17.6667C10 19.3235 8.65685 20.6667 7 20.6667C5.34315 20.6667 4 19.3235 4 17.6667M10 17.6667C10 16.0098 8.65685 14.6667 7 14.6667C5.34315 14.6667 4 16.0098 4 17.6667M20.5 18.1667C20.5 19.5474 19.3807 20.6667 18 20.6667C16.6193 20.6667 15.5 19.5474 15.5 18.1667C15.5 16.786 16.6193 15.6667 18 15.6667C19.3807 15.6667 20.5 16.786 20.5 18.1667Z" stroke="#EAAA08" stroke-width="2" stroke-linecap="round" stroke-linejoin="round"/>
</svg>
