<svg width="14" height="4" viewBox="0 0 14 4" fill="none" xmlns="http://www.w3.org/2000/svg">
<path d="M7.00008 2.66668C7.36827 2.66668 7.66675 2.3682 7.66675 2.00001C7.66675 1.63182 7.36827 1.33334 7.00008 1.33334C6.63189 1.33334 6.33341 1.63182 6.33341 2.00001C6.33341 2.3682 6.63189 2.66668 7.00008 2.66668Z" stroke="#101010" stroke-width="1.5" stroke-linecap="round" stroke-linejoin="round"/>
<path d="M11.6667 2.66668C12.0349 2.66668 12.3334 2.3682 12.3334 2.00001C12.3334 1.63182 12.0349 1.33334 11.6667 1.33334C11.2986 1.33334 11.0001 1.63182 11.0001 2.00001C11.0001 2.3682 11.2986 2.66668 11.6667 2.66668Z" stroke="#101010" stroke-width="1.5" stroke-linecap="round" stroke-linejoin="round"/>
<path d="M2.33341 2.66668C2.7016 2.66668 3.00008 2.3682 3.00008 2.00001C3.00008 1.63182 2.7016 1.33334 2.33341 1.33334C1.96522 1.33334 1.66675 1.63182 1.66675 2.00001C1.66675 2.3682 1.96522 2.66668 2.33341 2.66668Z" stroke="#101010" stroke-width="1.5" stroke-linecap="round" stroke-linejoin="round"/>
</svg>
