<svg width="1440" height="653" viewBox="0 0 1440 653" fill="none" xmlns="http://www.w3.org/2000/svg">
<g opacity="0.3">
<mask id="mask0_4_39123" style="mask-type:alpha" maskUnits="userSpaceOnUse" x="32" y="188" width="1377" height="400">
<path d="M1408.33 379.078C1408.63 381.05 1408.82 383.029 1408.92 385.015L1408.43 385.04C1408.48 386.025 1408.5 387.012 1408.5 388C1408.5 388.988 1408.48 389.975 1408.43 390.96L1408.92 390.985C1408.82 392.972 1408.62 394.951 1408.33 396.923L1407.83 396.848C1407.54 398.78 1407.15 400.704 1406.67 402.622L1407.16 402.743C1406.67 404.668 1406.1 406.586 1405.43 408.495L1404.96 408.33C1404.32 410.152 1403.6 411.967 1402.79 413.775L1403.24 413.979C1402.44 415.782 1401.55 417.577 1400.58 419.365L1400.14 419.126C1399.22 420.822 1398.23 422.51 1397.16 424.192L1397.59 424.46C1396.53 426.125 1395.4 427.782 1394.21 429.433L1393.8 429.139C1392.67 430.699 1391.48 432.253 1390.22 433.801L1390.61 434.116C1389.36 435.652 1388.05 437.182 1386.68 438.704L1386.31 438.37C1385.02 439.798 1383.69 441.221 1382.29 442.637L1382.65 442.987C1381.26 444.409 1379.81 445.823 1378.31 447.232L1377.96 446.867C1376.57 448.179 1375.12 449.484 1373.63 450.785L1373.96 451.161C1372.48 452.46 1370.94 453.752 1369.37 455.038L1369.05 454.651C1367.54 455.886 1365.99 457.115 1364.4 458.339L1364.7 458.735C1363.15 459.923 1361.57 461.105 1359.95 462.282L1359.65 461.877C1358.04 463.051 1356.38 464.22 1354.69 465.383L1354.97 465.795C1353.39 466.885 1351.77 467.97 1350.12 469.05L1349.85 468.632C1348.2 469.709 1346.52 470.781 1344.81 471.848L1345.08 472.272C1343.39 473.325 1341.67 474.373 1339.93 475.415L1339.67 474.986C1338.01 475.977 1336.32 476.963 1334.61 477.945L1334.86 478.379C1333.14 479.362 1331.39 480.341 1329.62 481.315L1329.38 480.876C1327.64 481.831 1325.88 482.782 1324.09 483.727L1324.33 484.169C1322.61 485.077 1320.87 485.98 1319.11 486.879L1318.88 486.434C1317.12 487.331 1315.33 488.225 1313.53 489.114L1313.75 489.563C1311.96 490.443 1310.14 491.319 1308.31 492.191L1308.09 491.74C1306.34 492.571 1304.57 493.399 1302.78 494.223L1302.99 494.677C1301.2 495.501 1299.38 496.322 1297.55 497.138L1297.35 496.681C1295.51 497.497 1293.66 498.308 1291.79 499.115L1291.99 499.574C1290.2 500.345 1288.4 501.111 1286.58 501.874L1286.38 501.413C1284.57 502.171 1282.75 502.925 1280.9 503.675L1281.09 504.138C1279.24 504.889 1277.38 505.636 1275.5 506.379L1275.32 505.914C1273.47 506.641 1271.62 507.364 1269.74 508.084L1269.92 508.551C1268.1 509.251 1266.26 509.947 1264.41 510.639L1264.23 510.171C1262.38 510.863 1260.51 511.551 1258.63 512.236L1258.8 512.706C1256.92 513.391 1255.02 514.072 1253.11 514.75L1252.94 514.279C1251.09 514.932 1249.23 515.583 1247.36 516.229L1247.52 516.702C1245.67 517.342 1243.8 517.979 1241.92 518.612L1241.76 518.138C1239.88 518.771 1237.99 519.401 1236.08 520.027L1236.23 520.502C1234.33 521.128 1232.4 521.751 1230.47 522.37L1230.32 521.894C1228.46 522.488 1226.59 523.079 1224.71 523.667L1224.86 524.144C1222.98 524.731 1221.09 525.314 1219.19 525.894L1219.05 525.416C1217.15 525.995 1215.24 526.572 1213.31 527.145L1213.45 527.624C1211.53 528.197 1209.59 528.767 1207.65 529.334L1207.51 528.853C1205.63 529.399 1203.75 529.941 1201.85 530.479L1201.99 530.96C1200.09 531.498 1198.19 532.033 1196.28 532.565L1196.14 532.083C1194.23 532.614 1192.31 533.142 1190.37 533.667L1190.51 534.15C1188.57 534.675 1186.62 535.197 1184.67 535.716L1184.54 535.233C1182.64 535.736 1180.74 536.237 1178.82 536.734L1178.94 537.218C1177.04 537.712 1175.13 538.202 1173.21 538.69L1173.08 538.205C1171.16 538.692 1169.23 539.177 1167.29 539.658L1167.42 540.143C1165.47 540.625 1163.52 541.103 1161.57 541.578L1161.45 541.092C1159.52 541.56 1157.59 542.024 1155.64 542.485L1155.76 542.972C1153.85 543.425 1151.93 543.875 1150.01 544.322L1149.89 543.835C1147.97 544.282 1146.03 544.726 1144.09 545.167L1144.2 545.654C1142.26 546.096 1140.31 546.534 1138.35 546.969L1138.24 546.481C1136.28 546.916 1134.32 547.348 1132.34 547.777L1132.45 548.266C1130.53 548.681 1128.61 549.094 1126.69 549.504L1126.58 549.015C1124.66 549.424 1122.72 549.831 1120.78 550.235L1120.88 550.725C1118.94 551.129 1116.99 551.53 1115.03 551.928L1114.93 551.438C1112.97 551.837 1111.01 552.232 1109.04 552.624L1109.13 553.115C1107.18 553.503 1105.23 553.888 1103.26 554.27L1103.17 553.78C1101.24 554.155 1099.3 554.527 1097.36 554.897L1097.46 555.388C1095.52 555.757 1093.57 556.124 1091.61 556.488L1091.52 555.997C1089.57 556.361 1087.61 556.722 1085.64 557.08L1085.73 557.572C1083.76 557.931 1081.78 558.287 1079.8 558.639L1079.71 558.147C1077.77 558.494 1075.81 558.838 1073.85 559.179L1073.94 559.672C1072 560.009 1070.06 560.344 1068.1 560.676L1068.02 560.183C1066.07 560.515 1064.11 560.845 1062.15 561.171L1062.23 561.665C1060.27 561.991 1058.3 562.315 1056.32 562.637L1056.24 562.143C1054.27 562.464 1052.29 562.783 1050.3 563.098L1050.38 563.592C1048.43 563.902 1046.47 564.209 1044.51 564.514L1044.43 564.02C1042.49 564.322 1040.53 564.621 1038.58 564.918L1038.65 565.412C1036.69 565.709 1034.73 566.004 1032.76 566.295L1032.69 565.801C1030.72 566.092 1028.75 566.381 1026.77 566.667L1026.84 567.162C1024.86 567.448 1022.87 567.732 1020.88 568.013L1020.81 567.517C1018.85 567.794 1016.89 568.067 1014.92 568.338L1014.99 568.833C1013.04 569.102 1011.08 569.368 1009.12 569.632L1009.05 569.136C1008.34 569.232 1007.62 569.328 1006.91 569.423C1005.66 569.59 1004.4 569.755 1003.15 569.919L1003.22 570.415C1001.24 570.673 999.265 570.929 997.282 571.182L997.219 570.686C995.237 570.939 993.25 571.19 991.258 571.438L991.32 571.934C989.351 572.179 987.378 572.421 985.4 572.661L985.34 572.164C983.383 572.401 981.423 572.636 979.458 572.868L979.516 573.364C977.55 573.596 975.58 573.826 973.605 574.053L973.548 573.556C971.574 573.783 969.595 574.007 967.612 574.229L967.668 574.726C965.684 574.947 963.696 575.167 961.704 575.383L961.65 574.886C959.668 575.101 957.682 575.314 955.693 575.524L955.745 576.021C953.786 576.228 951.823 576.433 949.855 576.634L949.804 576.137C947.837 576.339 945.866 576.538 943.891 576.735L943.941 577.232C941.965 577.429 939.986 577.623 938.002 577.815L937.954 577.318C935.971 577.509 933.984 577.698 931.993 577.885L932.039 578.383C930.048 578.569 928.052 578.753 926.053 578.935L926.008 578.437C924.042 578.615 922.073 578.791 920.1 578.964L920.144 579.462C918.176 579.635 916.204 579.806 914.229 579.974L914.187 579.475C912.212 579.643 910.233 579.809 908.251 579.972L908.292 580.47C906.309 580.633 904.322 580.793 902.332 580.951L902.293 580.453C900.303 580.611 898.31 580.766 896.314 580.919L896.352 581.417C894.368 581.569 892.381 581.718 890.39 581.865L890.353 581.366C888.385 581.511 886.415 581.654 884.44 581.794L884.476 582.293C882.501 582.433 880.523 582.571 878.542 582.706L878.508 582.207C876.527 582.342 874.542 582.475 872.555 582.605L872.588 583.104C870.6 583.234 868.609 583.362 866.614 583.487L866.583 582.988C864.589 583.113 862.592 583.236 860.591 583.356L860.621 583.855C858.646 583.974 856.668 584.09 854.687 584.204L854.659 583.704C852.685 583.818 850.709 583.928 848.73 584.037L848.757 584.536C846.778 584.644 844.795 584.75 842.81 584.854L842.784 584.354C840.799 584.458 838.811 584.559 836.82 584.657L836.844 585.156C834.853 585.255 832.859 585.351 830.861 585.444L830.838 584.945C828.844 585.038 826.847 585.129 824.847 585.217L824.869 585.717C822.897 585.804 820.922 585.889 818.944 585.971L818.923 585.471C816.946 585.554 814.966 585.633 812.984 585.711L813.003 586.21C811.02 586.288 809.035 586.363 807.046 586.435L807.028 585.935C805.04 586.008 803.05 586.078 801.057 586.145L801.074 586.645C799.08 586.712 797.084 586.778 795.085 586.84L795.07 586.34C793.08 586.403 791.088 586.462 789.093 586.52L789.107 587.02C787.132 587.076 785.154 587.131 783.173 587.183L783.16 586.683C781.18 586.735 779.198 586.784 777.213 586.831L777.225 587.331C775.24 587.378 773.252 587.423 771.263 587.465L771.252 586.965C769.262 587.007 767.271 587.047 765.276 587.084L765.286 587.584C763.291 587.621 761.294 587.656 759.295 587.688L759.287 587.188C757.3 587.22 755.31 587.25 753.318 587.277L753.325 587.777C751.348 587.804 749.368 587.828 747.385 587.85L747.38 587.35C745.398 587.372 743.414 587.392 741.428 587.409L741.433 587.909C739.446 587.927 737.458 587.941 735.467 587.954L735.464 587.454C733.474 587.466 731.482 587.476 729.488 587.483L729.49 587.983C727.495 587.991 725.498 587.996 723.5 587.998L723.499 587.498C722.5 587.499 721.5 587.5 720.5 587.5L719.425 587.5C718.783 587.499 718.142 587.499 717.5 587.498L717.5 587.998C715.501 587.996 713.504 587.991 711.51 587.983L711.512 587.483C709.517 587.476 707.525 587.466 705.535 587.454L705.532 587.954C703.541 587.941 701.553 587.927 699.567 587.909L699.571 587.409C697.585 587.392 695.601 587.372 693.62 587.35L693.614 587.85C691.632 587.828 689.652 587.804 687.674 587.777L687.681 587.277C685.689 587.25 683.7 587.22 681.712 587.188L681.704 587.688C679.705 587.656 677.708 587.621 675.714 587.584L675.723 587.084C673.729 587.047 671.737 587.007 669.747 586.965L669.737 587.465C667.747 587.423 665.759 587.378 663.774 587.331L663.786 586.831C661.801 586.784 659.819 586.735 657.839 586.683L657.826 587.182C655.846 587.131 653.868 587.076 651.892 587.019L651.907 586.52C649.912 586.462 647.919 586.403 645.93 586.34L645.914 586.84C643.915 586.777 641.919 586.712 639.926 586.645L639.943 586.145C637.95 586.078 635.959 586.008 633.971 585.935L633.953 586.435C631.965 586.363 629.979 586.288 627.996 586.21L628.016 585.711C626.033 585.633 624.053 585.554 622.076 585.471L622.055 585.971C620.078 585.889 618.103 585.804 616.131 585.717L616.153 585.217C614.153 585.129 612.156 585.038 610.161 584.945L610.138 585.444C608.141 585.351 606.147 585.255 604.155 585.156L604.18 584.657C602.189 584.559 600.201 584.458 598.216 584.354L598.19 584.854C596.204 584.75 594.222 584.644 592.242 584.536L592.269 584.037C590.29 583.928 588.314 583.818 586.341 583.704L586.312 584.204C584.331 584.09 582.353 583.974 580.378 583.855L580.408 583.356C578.408 583.236 576.41 583.113 574.417 582.988L574.385 583.487C572.391 583.362 570.4 583.234 568.412 583.104L568.444 582.605C566.457 582.475 564.473 582.342 562.492 582.207L562.458 582.706C560.477 582.571 558.498 582.433 556.524 582.293L556.559 581.794C554.585 581.654 552.614 581.511 550.646 581.366L550.61 581.865C548.619 581.718 546.631 581.569 544.648 581.417L544.686 580.919C542.689 580.766 540.696 580.611 538.707 580.453L538.667 580.951C536.677 580.793 534.691 580.633 532.708 580.47L532.749 579.972C530.767 579.809 528.788 579.643 526.813 579.475L526.771 579.974C524.795 579.806 522.823 579.635 520.855 579.462L520.899 578.964C518.926 578.791 516.957 578.615 514.992 578.437L514.947 578.935C512.947 578.753 510.952 578.569 508.96 578.383L509.007 577.885C507.016 577.698 505.029 577.509 503.045 577.317L502.997 577.815C501.014 577.623 499.034 577.429 497.059 577.232L497.108 576.735C495.133 576.538 493.162 576.339 491.195 576.137L491.144 576.634C489.177 576.433 487.214 576.228 485.255 576.021L485.307 575.524C483.317 575.314 481.331 575.101 479.35 574.886L479.296 575.383C477.303 575.166 475.315 574.947 473.332 574.726L473.387 574.229C471.404 574.007 469.425 573.783 467.451 573.556L467.394 574.053C465.419 573.826 463.449 573.596 461.483 573.364L461.542 572.868C459.577 572.636 457.616 572.401 455.66 572.164L455.6 572.661C453.622 572.421 451.648 572.179 449.68 571.934L449.742 571.438C447.75 571.19 445.763 570.939 443.781 570.686L443.717 571.182C441.735 570.929 439.757 570.673 437.784 570.415L437.849 569.919C435.877 569.661 433.91 569.4 431.948 569.136L431.881 569.632C429.918 569.368 427.96 569.102 426.008 568.833L426.076 568.338C424.108 568.067 422.146 567.794 420.189 567.517L420.119 568.013C418.128 567.732 416.142 567.448 414.162 567.162L414.234 566.667C412.254 566.381 410.28 566.092 408.312 565.801L408.238 566.295C406.269 566.004 404.306 565.709 402.347 565.412L402.422 564.918C400.465 564.621 398.513 564.322 396.566 564.02L396.489 564.514C394.528 564.209 392.571 563.902 390.621 563.592L390.699 563.098C388.712 562.783 386.731 562.464 384.756 562.143L384.676 562.637C382.701 562.315 380.731 561.991 378.768 561.665L378.85 561.171C376.887 560.845 374.93 560.515 372.979 560.183L372.895 560.676C370.944 560.344 368.999 560.009 367.06 559.672L367.146 559.179C365.186 558.838 363.232 558.494 361.285 558.147L361.198 558.639C359.216 558.286 357.241 557.931 355.272 557.572L355.362 557.08C353.394 556.722 351.433 556.361 349.479 555.997L349.387 556.488C347.432 556.124 345.484 555.757 343.543 555.388L343.636 554.896C341.695 554.527 339.761 554.155 337.834 553.78L337.739 554.27C335.774 553.888 333.817 553.503 331.866 553.115L331.964 552.624C329.992 552.232 328.027 551.836 326.07 551.438L325.97 551.928C324.012 551.53 322.062 551.129 320.119 550.724L320.221 550.235C318.279 549.831 316.344 549.424 314.417 549.015L314.313 549.504C312.386 549.094 310.465 548.681 308.553 548.266L308.659 547.777C306.684 547.348 304.717 546.916 302.758 546.481L302.65 546.969C300.691 546.534 298.74 546.095 296.797 545.654L296.908 545.167C294.966 544.726 293.032 544.282 291.107 543.835L290.994 544.322C289.068 543.875 287.15 543.425 285.242 542.972L285.357 542.485C283.413 542.024 281.478 541.56 279.551 541.092L279.433 541.578C277.474 541.103 275.525 540.625 273.584 540.143L273.705 539.658C271.765 539.177 269.835 538.692 267.915 538.205L267.792 538.69C265.87 538.202 263.958 537.712 262.055 537.218L262.181 536.734C260.263 536.237 258.356 535.736 256.458 535.233L256.33 535.716C254.374 535.197 252.429 534.675 250.495 534.15L250.626 533.667C248.692 533.142 246.768 532.614 244.856 532.083L244.722 532.565C242.808 532.033 240.905 531.498 239.012 530.96L239.149 530.479C237.253 529.94 235.368 529.398 233.494 528.853L233.354 529.333C231.406 528.767 229.47 528.197 227.545 527.624L227.688 527.144C225.764 526.571 223.853 525.995 221.953 525.415L221.807 525.894C219.906 525.314 218.016 524.73 216.139 524.144L216.288 523.667C214.407 523.079 212.539 522.488 210.682 521.894L210.53 522.37C208.595 521.751 206.673 521.128 204.765 520.501L204.921 520.026C203.013 519.4 201.12 518.771 199.239 518.138L199.08 518.612C197.198 517.979 195.33 517.342 193.475 516.702L193.638 516.229C191.765 515.582 189.905 514.932 188.059 514.278L187.892 514.75C185.978 514.072 184.08 513.391 182.196 512.705L182.367 512.236C180.485 511.551 178.618 510.863 176.767 510.171L176.592 510.639C174.739 509.947 172.901 509.25 171.079 508.551L171.258 508.084C169.384 507.364 167.526 506.641 165.684 505.914L165.501 506.379C163.62 505.636 161.756 504.889 159.909 504.138L160.097 503.675C158.252 502.925 156.425 502.171 154.615 501.413L154.422 501.874C152.6 501.111 150.796 500.345 149.01 499.574L149.208 499.115C147.337 498.308 145.485 497.497 143.654 496.681L143.45 497.138C141.617 496.322 139.804 495.501 138.011 494.677L138.219 494.222C136.428 493.399 134.657 492.571 132.906 491.74L132.692 492.191C130.856 491.319 129.043 490.443 127.253 489.562L127.474 489.114C125.666 488.225 123.881 487.331 122.12 486.433L121.893 486.879C120.13 485.98 118.389 485.077 116.673 484.169L116.907 483.727C115.118 482.781 113.355 481.831 111.618 480.876L111.377 481.314C109.605 480.341 107.861 479.362 106.143 478.379L106.391 477.945C104.677 476.963 102.989 475.977 101.328 474.986L101.072 475.415C99.3248 474.372 97.6077 473.324 95.9212 472.271L96.186 471.847C94.4771 470.78 92.7998 469.708 91.1545 468.631L90.8807 469.05C89.2305 467.97 87.6122 466.885 86.0263 465.794L86.3096 465.382C84.6174 464.219 82.9623 463.051 81.3446 461.877L81.051 462.281C79.4297 461.105 77.8459 459.923 76.2998 458.735L76.6044 458.339C75.0112 457.115 73.4585 455.886 71.9467 454.651L71.6304 455.038C70.0553 453.752 68.5242 452.459 67.0377 451.161L67.3666 450.784C65.878 449.484 64.4345 448.178 63.0365 446.867L62.6944 447.231C61.1934 445.823 59.7445 444.408 58.3484 442.987L58.7051 442.636C57.3139 441.22 55.9756 439.798 54.6907 438.369L54.319 438.704C52.9496 437.181 51.6405 435.652 50.3923 434.116L50.7804 433.8C49.5232 432.253 48.3285 430.699 47.197 429.139L46.7923 429.432C45.5955 427.782 44.4688 426.124 43.4131 424.459L43.8354 424.192C42.769 422.51 41.7758 420.821 40.8566 419.126L40.4171 419.364C39.448 417.577 38.5603 415.782 37.7554 413.979L38.2119 413.775C37.4045 411.967 36.681 410.151 36.0425 408.329L35.5707 408.495C34.9016 406.585 34.325 404.668 33.8422 402.743L34.3272 402.621C33.8462 400.704 33.4592 398.779 33.1672 396.848L32.6729 396.922C32.3749 394.95 32.1751 392.971 32.0751 390.985L32.5745 390.96C32.5249 389.975 32.5 388.988 32.5 388C32.5 387.012 32.5249 386.025 32.5745 385.04L32.0751 385.015C32.1752 383.028 32.3749 381.049 32.6729 379.077L33.1673 379.152C33.4592 377.22 33.8463 375.296 34.3273 373.378L33.8423 373.257C34.3252 371.332 34.9018 369.414 35.5708 367.505L36.0427 367.67C36.6812 365.848 37.4047 364.033 38.2121 362.225L37.7556 362.021C38.5606 360.218 39.4482 358.423 40.4173 356.635L40.8569 356.874C41.7761 355.178 42.7693 353.49 43.8357 351.808L43.4134 351.54C44.4691 349.875 45.5958 348.218 46.7926 346.567L47.1973 346.861C48.3288 345.301 49.5235 343.747 50.7807 342.199L50.3926 341.884C51.6408 340.348 52.9499 338.818 54.3193 337.296L54.691 337.63C55.9759 336.202 57.3142 334.779 58.7054 333.363L58.3487 333.013C59.7449 331.591 61.1938 330.177 62.6948 328.768L63.0369 329.133C64.4349 327.821 65.8784 326.516 67.367 325.215L67.0381 324.839C68.5246 323.54 70.0557 322.248 71.6308 320.962L71.9471 321.349C73.4589 320.114 75.0116 318.885 76.6048 317.661L76.3002 317.265C77.8463 316.077 79.4301 314.895 81.0514 313.718L81.345 314.123C82.9627 312.949 84.6179 311.78 86.31 310.617L86.0268 310.205C87.6127 309.115 89.2309 308.03 90.8811 306.95L91.1549 307.368C92.8002 306.291 94.4775 305.219 96.1864 304.152L95.9216 303.728C97.6081 302.675 99.3252 301.627 101.073 300.585L101.329 301.014C102.989 300.023 104.677 299.037 106.392 298.055L106.143 297.621C107.861 296.638 109.606 295.659 111.377 294.685L111.618 295.124C113.355 294.169 115.118 293.218 116.907 292.273L116.673 291.831C118.39 290.923 120.13 290.02 121.893 289.121L122.121 289.566C123.882 288.669 125.666 287.775 127.474 286.886L127.253 286.437C129.044 285.557 130.857 284.68 132.692 283.809L132.907 284.26C134.658 283.429 136.429 282.601 138.22 281.777L138.011 281.323C139.804 280.499 141.618 279.678 143.451 278.862L143.654 279.319C145.486 278.503 147.337 277.692 149.208 276.885L149.01 276.426C150.796 275.655 152.6 274.889 154.422 274.126L154.615 274.587C156.425 273.829 158.253 273.075 160.098 272.325L159.909 271.862C161.756 271.111 163.62 270.364 165.501 269.621L165.685 270.086C167.526 269.359 169.384 268.636 171.259 267.916L171.079 267.449C172.901 266.749 174.739 266.053 176.592 265.361L176.767 265.829C178.619 265.137 180.486 264.449 182.368 263.764L182.197 263.294C184.08 262.609 185.979 261.928 187.893 261.25L188.06 261.721C189.905 261.068 191.765 260.417 193.639 259.771L193.476 259.298C195.33 258.658 197.198 258.021 199.08 257.388L199.24 257.862C201.12 257.229 203.014 256.599 204.921 255.973L204.765 255.498C206.674 254.872 208.595 254.249 210.53 253.63L210.683 254.106C212.539 253.512 214.408 252.921 216.289 252.333L216.14 251.856C218.017 251.269 219.906 250.686 221.807 250.106L221.953 250.584C223.853 250.005 225.765 249.428 227.689 248.855L227.546 248.376C229.47 247.803 231.407 247.233 233.355 246.666L233.495 247.147C235.369 246.601 237.254 246.059 239.149 245.521L239.013 245.04C240.905 244.502 242.808 243.967 244.722 243.435L244.856 243.917C246.769 243.386 248.692 242.858 250.626 242.333L250.495 241.85C252.43 241.325 254.375 240.803 256.331 240.284L256.459 240.767C258.356 240.264 260.264 239.763 262.181 239.266L262.056 238.782C263.958 238.288 265.87 237.798 267.792 237.31L267.915 237.795C269.836 237.308 271.766 236.823 273.705 236.342L273.585 235.857C275.525 235.375 277.475 234.897 279.434 234.422L279.552 234.908C281.478 234.44 283.413 233.976 285.357 233.515L285.242 233.028C287.151 232.575 289.068 232.125 290.994 231.678L291.107 232.165C293.033 231.718 294.966 231.274 296.908 230.833L296.797 230.346C298.74 229.904 300.691 229.466 302.651 229.031L302.759 229.519C304.718 229.084 306.684 228.652 308.66 228.223L308.553 227.734C310.466 227.319 312.386 226.906 314.314 226.496L314.418 226.985C316.345 226.576 318.279 226.169 320.222 225.765L320.12 225.275C322.063 224.871 324.013 224.47 325.971 224.072L326.071 224.562C328.028 224.163 329.992 223.768 331.964 223.376L331.867 222.885C333.817 222.497 335.775 222.112 337.739 221.73L337.835 222.22C339.762 221.845 341.696 221.473 343.637 221.103L343.543 220.612C345.485 220.243 347.433 219.876 349.388 219.512L349.479 220.003C351.434 219.639 353.395 219.278 355.363 218.92L355.273 218.428C357.241 218.069 359.217 217.713 361.198 217.361L361.286 217.853C363.233 217.506 365.186 217.162 367.146 216.821L367.06 216.328C368.999 215.991 370.945 215.656 372.896 215.324L372.98 215.817C374.93 215.485 376.887 215.155 378.85 214.829L378.768 214.335C380.732 214.009 382.701 213.685 384.677 213.363L384.757 213.857C386.732 213.536 388.713 213.217 390.7 212.902L390.621 212.408C392.572 212.098 394.528 211.791 396.49 211.486L396.567 211.98C398.513 211.678 400.465 211.379 402.423 211.082L402.348 210.588C404.306 210.291 406.27 209.996 408.239 209.705L408.312 210.199C410.281 209.908 412.255 209.619 414.234 209.333L414.163 208.838C416.143 208.552 418.128 208.268 420.119 207.987L420.189 208.483C422.146 208.206 424.109 207.933 426.076 207.662L426.008 207.167C427.961 206.898 429.919 206.632 431.882 206.368L431.948 206.864C433.91 206.6 435.878 206.339 437.85 206.081L437.785 205.585C439.758 205.327 441.735 205.071 443.718 204.818L443.781 205.314C445.763 205.061 447.75 204.81 449.742 204.562L449.68 204.066C451.649 203.821 453.622 203.579 455.6 203.339L455.66 203.836C457.617 203.599 459.577 203.364 461.542 203.132L461.484 202.636C463.45 202.404 465.42 202.174 467.395 201.947L467.452 202.444C469.426 202.217 471.405 201.993 473.388 201.771L473.332 201.274C475.316 201.053 477.304 200.833 479.296 200.617L479.35 201.114C481.332 200.899 483.318 200.686 485.307 200.476L485.255 199.979C487.214 199.772 489.177 199.567 491.145 199.366L491.196 199.863C493.163 199.661 495.134 199.462 497.109 199.265L497.059 198.768C499.035 198.571 501.014 198.377 502.998 198.185L503.046 198.682C505.029 198.491 507.016 198.302 509.007 198.115L508.961 197.617C510.952 197.431 512.948 197.247 514.947 197.065L514.992 197.563C516.958 197.385 518.927 197.209 520.9 197.036L520.856 196.538C522.824 196.365 524.796 196.194 526.771 196.026L526.813 196.525C528.788 196.357 530.767 196.191 532.749 196.028L532.708 195.53C534.691 195.367 536.678 195.207 538.668 195.049L538.707 195.547C540.697 195.389 542.69 195.234 544.686 195.081L544.648 194.583C546.632 194.431 548.619 194.282 550.61 194.135L550.647 194.634C552.615 194.489 554.585 194.346 556.56 194.206L556.524 193.707C558.499 193.567 560.477 193.429 562.458 193.294L562.492 193.793C564.473 193.658 566.458 193.525 568.445 193.395L568.412 192.896C570.4 192.766 572.391 192.638 574.386 192.513L574.417 193.012C576.411 192.887 578.408 192.764 580.409 192.644L580.379 192.145C582.354 192.026 584.332 191.91 586.313 191.796L586.341 192.296C588.315 192.182 590.291 192.072 592.27 191.963L592.243 191.464C594.222 191.356 596.205 191.25 598.19 191.146L598.216 191.646C600.201 191.542 602.189 191.441 604.18 191.343L604.156 190.844C606.147 190.745 608.141 190.649 610.139 190.556L610.162 191.055C612.156 190.962 614.153 190.871 616.153 190.783L616.131 190.283C618.103 190.196 620.078 190.111 622.056 190.029L622.077 190.529C624.054 190.446 626.034 190.367 628.016 190.289L627.997 189.79C629.98 189.712 631.965 189.637 633.954 189.565L633.972 190.065C635.96 189.992 637.95 189.922 639.943 189.855L639.926 189.355C641.92 189.288 643.916 189.222 645.915 189.16L645.93 189.66C647.92 189.597 649.912 189.538 651.907 189.48L651.893 188.981C653.868 188.924 655.846 188.869 657.827 188.817L657.84 189.317C659.82 189.265 661.802 189.216 663.787 189.169L663.775 188.669C665.76 188.622 667.748 188.577 669.737 188.535L669.748 189.035C671.738 188.993 673.729 188.953 675.724 188.916L675.714 188.416C677.709 188.379 679.706 188.344 681.705 188.312L681.713 188.812C683.7 188.78 685.69 188.75 687.682 188.723L687.675 188.223C689.653 188.196 691.633 188.172 693.615 188.15L693.62 188.65C695.602 188.628 697.586 188.608 699.572 188.591L699.567 188.091C701.554 188.073 703.542 188.059 705.533 188.046L705.536 188.546C707.526 188.534 709.518 188.524 711.512 188.517L711.51 188.017C713.505 188.009 715.502 188.004 717.5 188.002L717.501 188.502C718.5 188.501 719.5 188.5 720.5 188.5C721.5 188.5 722.5 188.501 723.5 188.502L723.5 188.002C725.499 188.004 727.496 188.009 729.49 188.017L729.488 188.517C731.483 188.524 733.475 188.534 735.465 188.546L735.468 188.046C737.459 188.059 739.447 188.073 741.433 188.091L741.429 188.591C743.415 188.608 745.399 188.628 747.38 188.65L747.386 188.15C749.368 188.172 751.348 188.196 753.326 188.223L753.319 188.723C755.311 188.75 757.3 188.78 759.288 188.812L759.296 188.312C761.295 188.344 763.292 188.379 765.286 188.416L765.277 188.916C767.271 188.953 769.263 188.993 771.253 189.035L771.263 188.535C773.253 188.577 775.241 188.622 777.226 188.669L777.214 189.169C779.199 189.216 781.181 189.265 783.161 189.317L783.174 188.818C785.154 188.869 787.132 188.924 789.108 188.981L789.093 189.48C791.088 189.538 793.081 189.597 795.07 189.66L795.086 189.16C797.085 189.223 799.081 189.288 801.074 189.355L801.057 189.855C803.05 189.922 805.041 189.992 807.029 190.065L807.047 189.565C809.035 189.637 811.021 189.712 813.004 189.79L812.984 190.289C814.967 190.367 816.947 190.446 818.924 190.529L818.945 190.029C820.922 190.111 822.897 190.196 824.869 190.283L824.847 190.783C826.847 190.871 828.844 190.962 830.839 191.055L830.862 190.556C832.859 190.649 834.854 190.745 836.845 190.844L836.82 191.343C838.811 191.441 840.799 191.542 842.784 191.646L842.81 191.146C844.796 191.25 846.778 191.356 848.758 191.464L848.731 191.963C850.71 192.072 852.686 192.182 854.659 192.296L854.688 191.796C856.669 191.91 858.647 192.026 860.622 192.145L860.592 192.644C862.592 192.764 864.59 192.887 866.583 193.012L866.615 192.513C868.609 192.638 870.6 192.766 872.588 192.896L872.556 193.395C874.543 193.525 876.527 193.658 878.508 193.793L878.542 193.294C880.523 193.429 882.502 193.567 884.476 193.707L884.441 194.206C886.415 194.346 888.386 194.489 890.354 194.634L890.39 194.135C892.381 194.282 894.369 194.431 896.352 194.583L896.314 195.081C898.311 195.234 900.304 195.389 902.293 195.547L902.333 195.049C904.323 195.207 906.309 195.367 908.292 195.53L908.251 196.028C910.233 196.191 912.212 196.357 914.187 196.525L914.229 196.026C916.205 196.194 918.177 196.365 920.145 196.538L920.101 197.036C922.074 197.209 924.043 197.385 926.008 197.563L926.053 197.065C928.053 197.247 930.048 197.431 932.04 197.617L931.993 198.115C933.984 198.302 935.971 198.491 937.955 198.683L938.003 198.185C939.986 198.377 941.966 198.571 943.941 198.768L943.892 199.265C945.867 199.462 947.838 199.661 949.805 199.863L949.856 199.366C951.823 199.567 953.786 199.772 955.745 199.979L955.693 200.476C957.683 200.686 959.669 200.899 961.65 201.114L961.704 200.617C963.697 200.834 965.685 201.053 967.668 201.274L967.613 201.771C969.596 201.993 971.575 202.217 973.549 202.444L973.606 201.947C975.581 202.174 977.551 202.404 979.517 202.636L979.458 203.132C981.423 203.364 983.384 203.599 985.34 203.836L985.4 203.339C987.378 203.579 989.352 203.821 991.32 204.066L991.258 204.562C993.25 204.81 995.237 205.061 997.219 205.314L997.283 204.818C999.265 205.071 1001.24 205.327 1003.22 205.585L1003.15 206.081C1005.12 206.339 1007.09 206.6 1009.05 206.864L1009.12 206.368C1011.08 206.632 1013.04 206.898 1014.99 207.167L1014.92 207.662C1016.89 207.933 1018.85 208.206 1020.81 208.483L1020.88 207.987C1022.87 208.268 1024.86 208.552 1026.84 208.838L1026.77 209.333C1028.75 209.619 1030.72 209.908 1032.69 210.199L1032.76 209.705C1034.73 209.996 1036.69 210.291 1038.65 210.588L1038.58 211.082C1040.54 211.379 1042.49 211.678 1044.43 211.98L1044.51 211.486C1046.47 211.791 1048.43 212.098 1050.38 212.408L1050.3 212.902C1052.29 213.217 1054.27 213.536 1056.24 213.857L1056.32 213.363C1058.3 213.685 1060.27 214.009 1062.23 214.335L1062.15 214.829C1064.11 215.155 1066.07 215.485 1068.02 215.817L1068.1 215.324C1070.06 215.656 1072 215.991 1073.94 216.328L1073.85 216.821C1075.81 217.162 1077.77 217.506 1079.71 217.853L1079.8 217.361C1081.78 217.713 1083.76 218.069 1085.73 218.428L1085.64 218.92C1087.61 219.278 1089.57 219.639 1091.52 220.003L1091.61 219.512C1093.57 219.876 1095.52 220.243 1097.46 220.612L1097.36 221.104C1099.3 221.473 1101.24 221.845 1103.17 222.22L1103.26 221.73C1105.23 222.112 1107.18 222.497 1109.13 222.885L1109.04 223.376C1111.01 223.768 1112.97 224.164 1114.93 224.562L1115.03 224.072C1116.99 224.47 1118.94 224.871 1120.88 225.276L1120.78 225.765C1122.72 226.169 1124.66 226.576 1126.58 226.985L1126.69 226.496C1128.61 226.906 1130.53 227.319 1132.45 227.734L1132.34 228.223C1134.32 228.652 1136.28 229.084 1138.24 229.519L1138.35 229.031C1140.31 229.466 1142.26 229.905 1144.2 230.346L1144.09 230.833C1146.03 231.274 1147.97 231.718 1149.89 232.165L1150.01 231.678C1151.93 232.125 1153.85 232.575 1155.76 233.028L1155.64 233.515C1157.59 233.976 1159.52 234.44 1161.45 234.908L1161.57 234.422C1163.53 234.897 1165.48 235.375 1167.42 235.857L1167.3 236.342C1169.23 236.823 1171.16 237.308 1173.09 237.795L1173.21 237.31C1175.13 237.798 1177.04 238.288 1178.94 238.782L1178.82 239.266C1180.74 239.763 1182.64 240.264 1184.54 240.767L1184.67 240.284C1186.63 240.803 1188.57 241.325 1190.51 241.85L1190.37 242.333C1192.31 242.858 1194.23 243.386 1196.14 243.917L1196.28 243.435C1198.19 243.967 1200.1 244.502 1201.99 245.04L1201.85 245.521C1203.75 246.06 1205.63 246.602 1207.51 247.147L1207.65 246.667C1209.59 247.233 1211.53 247.803 1213.45 248.376L1213.31 248.856C1215.24 249.429 1217.15 250.005 1219.05 250.585L1219.19 250.106C1221.09 250.686 1222.98 251.27 1224.86 251.856L1224.71 252.333C1226.59 252.921 1228.46 253.512 1230.32 254.106L1230.47 253.63C1232.41 254.249 1234.33 254.872 1236.24 255.499L1236.08 255.974C1237.99 256.6 1239.88 257.229 1241.76 257.862L1241.92 257.388C1243.8 258.021 1245.67 258.658 1247.52 259.298L1247.36 259.771C1249.24 260.418 1251.1 261.068 1252.94 261.722L1253.11 261.25C1255.02 261.928 1256.92 262.609 1258.8 263.295L1258.63 263.764C1260.51 264.449 1262.38 265.137 1264.23 265.829L1264.41 265.361C1266.26 266.053 1268.1 266.75 1269.92 267.449L1269.74 267.916C1271.62 268.636 1273.47 269.359 1275.32 270.086L1275.5 269.621C1277.38 270.364 1279.24 271.111 1281.09 271.862L1280.9 272.325C1282.75 273.075 1284.58 273.829 1286.39 274.587L1286.58 274.126C1288.4 274.889 1290.2 275.655 1291.99 276.426L1291.79 276.885C1293.66 277.692 1295.51 278.503 1297.35 279.319L1297.55 278.862C1299.38 279.678 1301.2 280.499 1302.99 281.323L1302.78 281.778C1304.57 282.601 1306.34 283.429 1308.09 284.26L1308.31 283.809C1310.14 284.681 1311.96 285.557 1313.75 286.438L1313.53 286.886C1315.33 287.775 1317.12 288.669 1318.88 289.567L1319.11 289.121C1320.87 290.02 1322.61 290.923 1324.33 291.831L1324.09 292.273C1325.88 293.219 1327.65 294.169 1329.38 295.124L1329.62 294.686C1331.39 295.659 1333.14 296.638 1334.86 297.621L1334.61 298.055C1336.32 299.037 1338.01 300.023 1339.67 301.014L1339.93 300.585C1341.68 301.628 1343.39 302.676 1345.08 303.729L1344.81 304.153C1346.52 305.22 1348.2 306.292 1349.85 307.369L1350.12 306.95C1351.77 308.03 1353.39 309.115 1354.97 310.206L1354.69 310.618C1356.38 311.781 1358.04 312.949 1359.66 314.123L1359.95 313.719C1361.57 314.895 1363.15 316.077 1364.7 317.265L1364.4 317.661C1365.99 318.885 1367.54 320.114 1369.05 321.349L1369.37 320.962C1370.94 322.248 1372.48 323.541 1373.96 324.839L1373.63 325.216C1375.12 326.516 1376.57 327.822 1377.96 329.133L1378.31 328.769C1379.81 330.177 1381.26 331.592 1382.65 333.013L1382.29 333.364C1383.69 334.78 1385.02 336.202 1386.31 337.631L1386.68 337.296C1388.05 338.819 1389.36 340.348 1390.61 341.884L1390.22 342.2C1391.48 343.747 1392.67 345.301 1393.8 346.861L1394.21 346.568C1395.4 348.218 1396.53 349.876 1397.59 351.541L1397.16 351.808C1398.23 353.49 1399.22 355.179 1400.14 356.874L1400.58 356.636C1401.55 358.423 1402.44 360.218 1403.24 362.021L1402.79 362.225C1403.6 364.033 1404.32 365.849 1404.96 367.671L1405.43 367.505C1406.1 369.415 1406.68 371.332 1407.16 373.257L1406.67 373.379C1407.15 375.296 1407.54 377.221 1407.83 379.152L1408.33 379.078Z" fill="#D9D9D9" stroke="#727272" stroke-dasharray="6 6"/>
</mask>
<g mask="url(#mask0_4_39123)">
<line x1="1400.5" y1="652.91" x2="1400.5" y2="-320.09" stroke="#727272" stroke-dasharray="6 6"/>
<line x1="1353.5" y1="652.91" x2="1353.5" y2="-320.09" stroke="#727272" stroke-dasharray="6 6"/>
<line x1="1306.5" y1="652.91" x2="1306.5" y2="-320.09" stroke="#727272" stroke-dasharray="6 6"/>
<line x1="1259.5" y1="652.91" x2="1259.5" y2="-320.09" stroke="#727272" stroke-dasharray="6 6"/>
<line x1="1212.5" y1="652.91" x2="1212.5" y2="-320.09" stroke="#727272" stroke-dasharray="6 6"/>
<line x1="1165.5" y1="652.91" x2="1165.5" y2="-320.09" stroke="#727272" stroke-dasharray="6 6"/>
<line x1="1118.5" y1="652.91" x2="1118.5" y2="-320.09" stroke="#727272" stroke-dasharray="6 6"/>
<line x1="1071.5" y1="652.91" x2="1071.5" y2="-320.09" stroke="#727272" stroke-dasharray="6 6"/>
<line x1="1024.5" y1="652.91" x2="1024.5" y2="-320.09" stroke="#727272" stroke-dasharray="6 6"/>
<line x1="977.5" y1="652.91" x2="977.5" y2="-320.09" stroke="#727272" stroke-dasharray="6 6"/>
<line x1="930.5" y1="652.91" x2="930.5" y2="-320.09" stroke="#727272" stroke-dasharray="6 6"/>
<line x1="883.5" y1="652.91" x2="883.5" y2="-320.09" stroke="#727272" stroke-dasharray="6 6"/>
<line x1="836.5" y1="652.91" x2="836.5" y2="-320.09" stroke="#727272" stroke-dasharray="6 6"/>
<line x1="789.5" y1="652.91" x2="789.5" y2="-320.09" stroke="#727272" stroke-dasharray="6 6"/>
<line x1="742.5" y1="652.91" x2="742.5" y2="-320.09" stroke="#727272" stroke-dasharray="6 6"/>
<line x1="695.5" y1="652.91" x2="695.5" y2="-320.09" stroke="#727272" stroke-dasharray="6 6"/>
<line x1="648.5" y1="652.91" x2="648.5" y2="-320.09" stroke="#727272" stroke-dasharray="6 6"/>
<line x1="601.5" y1="652.91" x2="601.5" y2="-320.09" stroke="#727272" stroke-dasharray="6 6"/>
<line x1="554.5" y1="652.91" x2="554.5" y2="-320.09" stroke="#727272" stroke-dasharray="6 6"/>
<line x1="507.5" y1="652.91" x2="507.5" y2="-320.09" stroke="#727272" stroke-dasharray="6 6"/>
<line x1="460.5" y1="652.91" x2="460.5" y2="-320.09" stroke="#727272" stroke-dasharray="6 6"/>
<line x1="413.5" y1="652.91" x2="413.5" y2="-320.09" stroke="#727272" stroke-dasharray="6 6"/>
<line x1="366.5" y1="652.91" x2="366.5" y2="-320.09" stroke="#727272" stroke-dasharray="6 6"/>
<line x1="319.5" y1="652.91" x2="319.5" y2="-320.09" stroke="#727272" stroke-dasharray="6 6"/>
<line x1="272.5" y1="652.91" x2="272.5" y2="-320.09" stroke="#727272" stroke-dasharray="6 6"/>
<line x1="225.5" y1="652.91" x2="225.5" y2="-320.09" stroke="#727272" stroke-dasharray="6 6"/>
<line x1="178.5" y1="652.91" x2="178.5" y2="-320.09" stroke="#727272" stroke-dasharray="6 6"/>
<line x1="131.5" y1="652.91" x2="131.5" y2="-320.09" stroke="#727272" stroke-dasharray="6 6"/>
<line x1="84.4998" y1="652.91" x2="84.4999" y2="-320.09" stroke="#727272" stroke-dasharray="6 6"/>
<line x1="37.4998" y1="652.91" x2="37.4999" y2="-320.09" stroke="#727272" stroke-dasharray="6 6"/>
<line x1="-1" y1="583.218" x2="1440" y2="583.219" stroke="#727272" stroke-dasharray="6 6"/>
<line x1="-1" y1="536.218" x2="1440" y2="536.218" stroke="#727272" stroke-dasharray="6 6"/>
<line x1="-1" y1="489.218" x2="1440" y2="489.218" stroke="#727272" stroke-dasharray="6 6"/>
<line x1="-1" y1="442.218" x2="1440" y2="442.218" stroke="#727272" stroke-dasharray="6 6"/>
<line x1="-1" y1="395.218" x2="1440" y2="395.218" stroke="#727272" stroke-dasharray="6 6"/>
<line x1="-1" y1="348.218" x2="1440" y2="348.218" stroke="#727272" stroke-dasharray="6 6"/>
<line x1="-1" y1="301.218" x2="1440" y2="301.218" stroke="#727272" stroke-dasharray="6 6"/>
<line x1="-1" y1="254.218" x2="1440" y2="254.218" stroke="#727272" stroke-dasharray="6 6"/>
<line x1="-1" y1="207.218" x2="1440" y2="207.218" stroke="#727272" stroke-dasharray="6 6"/>
</g>
</g>
</svg>
