<svg width="105" height="20" viewBox="0 0 105 20" fill="none" xmlns="http://www.w3.org/2000/svg">
<rect x="0.5" y="0.5" width="104" height="19" rx="9.5" fill="#DFF9EB"/>
<rect x="0.5" y="0.5" width="104" height="19" rx="9.5" stroke="#C5E7D4"/>
<path d="M9.164 14L8.012 5.6H9.248L9.944 11.708L10.976 5.6H12.224L13.256 11.708L13.952 5.6H15.188L14.036 14H12.56L11.6 8.06L10.64 14H9.164ZM16.3953 14V5.6H21.7593V6.74H17.6673V9.188H21.3993V10.316H17.6673V12.86H21.7593V14H16.3953ZM25.4386 9.14L26.1946 5.6H27.8866L26.5786 9.14H25.4386ZM31.2059 14V5.6H33.9539C34.6099 5.6 35.1499 5.712 35.5739 5.936C36.0059 6.16 36.3259 6.464 36.5339 6.848C36.7499 7.224 36.8579 7.652 36.8579 8.132C36.8579 8.676 36.7179 9.16 36.4379 9.584C36.1659 10 35.7459 10.304 35.1779 10.496L36.9419 14H35.4659L33.8579 10.676H32.4779V14H31.2059ZM32.4779 9.524H33.8819C34.4579 9.524 34.8779 9.396 35.1419 9.14C35.4139 8.884 35.5499 8.548 35.5499 8.132C35.5499 7.708 35.4179 7.372 35.1539 7.124C34.8899 6.868 34.4619 6.74 33.8699 6.74H32.4779V9.524ZM38.7012 14V5.6H44.0652V6.74H39.9732V9.188H43.7052V10.316H39.9732V12.86H44.0652V14H38.7012ZM53.1039 14V5.6H54.3759V9.08H58.0479V5.6H59.3199V14H58.0479V10.244H54.3759V14H53.1039ZM61.1872 14V12.872H63.0112V6.728H61.2112V5.6H66.0832V6.728H64.2832V12.872H66.1072V14H61.1872ZM68.3825 14V5.6H71.1305C71.7865 5.6 72.3265 5.712 72.7505 5.936C73.1825 6.16 73.5025 6.464 73.7105 6.848C73.9265 7.224 74.0345 7.652 74.0345 8.132C74.0345 8.676 73.8945 9.16 73.6145 9.584C73.3425 10 72.9225 10.304 72.3545 10.496L74.1185 14H72.6425L71.0345 10.676H69.6545V14H68.3825ZM69.6545 9.524H71.0585C71.6345 9.524 72.0545 9.396 72.3185 9.14C72.5905 8.884 72.7265 8.548 72.7265 8.132C72.7265 7.708 72.5945 7.372 72.3305 7.124C72.0665 6.868 71.6385 6.74 71.0465 6.74H69.6545V9.524ZM76.0578 14V12.872H77.8818V6.728H76.0818V5.6H80.9538V6.728H79.1538V12.872H80.9778V14H76.0578ZM82.9651 14V5.6H84.2131L87.7291 11.756V5.6H88.9411V14H87.6931L84.1771 7.844V14H82.9651ZM93.2804 14.144C92.6564 14.144 92.1084 13.968 91.6364 13.616C91.1644 13.256 90.7964 12.752 90.5324 12.104C90.2684 11.456 90.1364 10.688 90.1364 9.8C90.1364 8.928 90.2684 8.168 90.5324 7.52C90.7964 6.872 91.1724 6.368 91.6604 6.008C92.1564 5.64 92.7484 5.456 93.4364 5.456C94.2684 5.456 94.9364 5.684 95.4404 6.14C95.9524 6.596 96.2644 7.24 96.3764 8.072H94.9964C94.9164 7.64 94.7404 7.296 94.4684 7.04C94.2044 6.784 93.8604 6.656 93.4364 6.656C92.7884 6.656 92.2924 6.936 91.9484 7.496C91.6044 8.056 91.4324 8.824 91.4324 9.8C91.4324 10.816 91.6124 11.596 91.9724 12.14C92.3404 12.676 92.8164 12.944 93.4004 12.944C93.7924 12.944 94.1164 12.828 94.3724 12.596C94.6284 12.364 94.8244 12.068 94.9604 11.708C95.0964 11.34 95.1804 10.952 95.2124 10.544H93.4484V9.488H96.4964V14H95.3204L95.2364 12.872H95.1644C95.0044 13.24 94.7804 13.544 94.4924 13.784C94.2044 14.024 93.8004 14.144 93.2804 14.144Z" fill="#7BAB91"/>
</svg>
